<svg id="svg" version="1.1" xmlns="http://www.w3.org/2000/svg" xmlns:xlink="http://www.w3.org/1999/xlink" width="400" height="147.48603351955308" viewBox="0, 0, 400,147.48603351955308"><g id="svgg"><path id="path0" d="M48.545 3.307 C -29.284 32.858,-9.290 146.369,73.743 146.369 C 170.535 146.369,172.729 3.265,75.978 0.621 C 63.715 0.286,53.992 1.238,48.545 3.307 M165.890 70.950 L 166.480 141.899 180.447 142.565 L 194.413 143.230 194.413 114.073 L 194.413 84.916 219.097 84.916 L 243.780 84.916 243.119 69.832 L 242.458 54.749 218.433 54.749 L 194.408 54.749 194.411 27.374 L 194.413 0.000 179.857 0.000 L 165.300 0.000 165.890 70.950 M268.156 14.525 L 268.156 29.050 329.609 29.050 L 391.061 29.050 391.061 14.525 L 391.061 0.000 329.609 0.000 L 268.156 0.000 268.156 14.525 M93.385 35.516 C 133.333 55.905,118.655 116.201,73.743 116.201 C 28.313 116.201,14.316 56.370,54.749 35.006 C 64.106 30.062,83.192 30.314,93.385 35.516 M268.156 69.238 L 268.156 84.916 329.711 84.916 L 391.266 84.916 390.605 69.832 L 389.944 54.749 329.050 54.154 L 268.156 53.559 268.156 69.238 M268.156 127.374 L 268.156 143.017 329.609 143.017 L 391.061 143.017 391.061 127.374 L 391.061 111.732 329.609 111.732 L 268.156 111.732 268.156 127.374 " stroke="none" fill="#000000" fill-rule="evenodd"></path></g></svg>